<?xml version="1.0" encoding="iso-8859-1"?>
<!-- Generator: Adobe Illustrator 19.0.0, SVG Export Plug-In . SVG Version: 6.00 Build 0)  -->
<svg version="1.1" id="Capa_1" xmlns="http://www.w3.org/2000/svg" xmlns:xlink="http://www.w3.org/1999/xlink" x="0px" y="0px"
	 viewBox="0 0 490 490" style="enable-background:new 0 0 490 490;" xml:space="preserve">
<g>
	<polygon points="161.964,205.283 291.849,287.269 309.299,259.642 161.995,166.683 14.23,259.483 31.616,287.141 	"/>
	<rect x="237.441" y="302.31" width="32.667" height="129.694"/>
	<rect x="145.423" y="302.31" width="32.667" height="129.694"/>
	<rect x="53.404" y="302.31" width="32.667" height="129.694"/>
	<rect x="23.736" y="457.333" width="276.04" height="32.667"/>
	<path d="M330.26,81.532h-18.118l-4.863,23.63h19.929c-0.206,3.564-0.302,7.669-0.302,12.348c0,2.736,0.048,5.33,0.159,7.765
		h-14.923l-4.863,23.621h22.519c4.164,20.622,12.73,37.855,25.73,51.667c19.071,20.319,43.433,30.471,73.056,30.471
		c17.562,0,32.929-3.294,46.12-9.897v-46.638c-11.57,11.998-27.097,17.98-46.581,17.98c-16.227,0-29.417-5.982-39.572-17.98
		c-5.276-6.19-9.186-14.734-11.713-25.603h69.402l4.879-23.621h-77.475c-0.206-3.851-0.318-7.559-0.318-11.122
		c0-3.66,0.064-6.651,0.159-8.99h81.893l4.863-23.63h-83.705c2.432-10.056,6.532-18.442,12.317-25.14
		c10.25-11.887,23.648-17.838,40.191-17.838c16.545,0,29.131,4.328,37.745,12.952l8.979-42.214C463.199,3.102,448.371,0,431.335,0
		c-31.26,0-56.481,10.263-75.663,30.789C342.99,44.41,334.519,61.325,330.26,81.532z"/>
</g>
<g>
</g>
<g>
</g>
<g>
</g>
<g>
</g>
<g>
</g>
<g>
</g>
<g>
</g>
<g>
</g>
<g>
</g>
<g>
</g>
<g>
</g>
<g>
</g>
<g>
</g>
<g>
</g>
<g>
</g>
</svg>
