<?xml version="1.0" encoding="iso-8859-1"?>
<!-- Generator: Adobe Illustrator 19.1.0, SVG Export Plug-In . SVG Version: 6.00 Build 0)  -->
<svg version="1.1" id="Capa_1" xmlns="http://www.w3.org/2000/svg" xmlns:xlink="http://www.w3.org/1999/xlink" x="0px" y="0px"
	 viewBox="0 0 297.037 297.037" style="enable-background:new 0 0 297.037 297.037;" xml:space="preserve">
<g>
	<polygon style="fill:#C52D2F;" points="30.724,88.394 40.544,85.5 20.151,75.97 	"/>
	<path style="fill:#FFFFFF;" d="M279.563,49.402c-2.132-7.153-8.828-12.149-16.282-12.149c-1.638,0-3.274,0.24-4.865,0.715
		l-52.098,15.354l2.069,0.967c3,1.402,4.826,4.508,4.594,7.81c-0.233,3.304-2.477,6.122-5.644,7.089l-65.5,20
		c-0.77,0.235-1.556,0.349-2.335,0.349c-2.296,0-4.526-0.99-6.071-2.79l-8.181-9.532L58.468,96.897l64.659,16.142L268.162,70.54
		C277.111,67.873,282.24,58.386,279.563,49.402z"/>
	<path d="M294.897,44.832c-4.14-13.883-17.14-23.579-31.616-23.579c-3.186,0-6.36,0.465-9.412,1.374l-69.44,20.466L93.822,0.754
		c-3.836-1.793-8.405-0.285-10.421,3.437l-5.436,10.035c-1.58,2.916-1.196,6.504,0.964,9.021l34.894,40.655L63.72,78.669
		L16.822,56.754c-3.836-1.793-8.405-0.285-10.421,3.438L0.966,70.226c-1.574,2.905-1.199,6.479,0.941,8.995l20,23.5
		c0.101,0.118,0.222,0.215,0.329,0.327c0.168,0.176,0.332,0.352,0.516,0.512c0.152,0.133,0.315,0.247,0.477,0.367
		c0.189,0.142,0.375,0.283,0.577,0.408c0.178,0.109,0.364,0.2,0.551,0.296c0.203,0.104,0.405,0.21,0.619,0.298
		c0.205,0.084,0.417,0.148,0.629,0.214c0.154,0.049,0.299,0.116,0.457,0.155l95.295,23.789c0.637,0.159,1.287,0.238,1.938,0.238
		c0.758,0,1.516-0.107,2.25-0.323l147.152-43.119C290.135,80.686,300.093,62.271,294.897,44.832z M30.724,88.394L20.151,75.97
		l20.394,9.53L30.724,88.394z M123.127,113.039L58.468,96.897l66.781-19.683l8.181,9.532c1.545,1.8,3.775,2.79,6.071,2.79
		c0.779,0,1.565-0.113,2.335-0.349l65.5-20c3.167-0.967,5.411-3.785,5.644-7.089c0.232-3.303-1.594-6.408-4.594-7.81l-2.069-0.967
		l52.098-15.354c1.591-0.475,3.227-0.715,4.865-0.715c7.454,0,14.15,4.996,16.282,12.149c2.678,8.983-2.452,18.471-11.4,21.138
		L123.127,113.039z M182.745,59.968l-40.58,12.391L97.236,20.01L182.745,59.968z"/>
	<polygon style="fill:#C52D2F;" points="97.236,20.01 142.165,72.358 182.745,59.968 	"/>
</g>
<g>
</g>
<g>
</g>
<g>
</g>
<g>
</g>
<g>
</g>
<g>
</g>
<g>
</g>
<g>
</g>
<g>
</g>
<g>
</g>
<g>
</g>
<g>
</g>
<g>
</g>
<g>
</g>
<g>
</g>
</svg>
